<?xml version="1.0" encoding="utf-8"?>
<!-- Generator: Adobe Illustrator 16.0.0, SVG Export Plug-In . SVG Version: 6.00 Build 0)  -->
<!DOCTYPE svg PUBLIC "-//W3C//DTD SVG 1.1//EN" "http://www.w3.org/Graphics/SVG/1.1/DTD/svg11.dtd">
<svg version="1.1" id="Layer_1" xmlns="http://www.w3.org/2000/svg" xmlns:xlink="http://www.w3.org/1999/xlink" x="0px" y="0px"
	 width="64px" height="64px" viewBox="0 0 64 64" enable-background="new 0 0 64 64" xml:space="preserve">
<g>
	<g>
		<path fill="#80DEEA" d="M32.597,16.45c-1.761,0-3.193,1.432-3.193,3.193c0,1.76,1.433,3.191,3.193,3.191
			c1.76,0,3.191-1.432,3.191-3.191C35.789,17.881,34.357,16.45,32.597,16.45z"/>
		<path fill="#80DEEA" d="M32.597,27.624c-1.323,0-2.395,1.072-2.395,2.395v14.367c0,1.322,1.071,2.396,2.395,2.396
			c1.322,0,2.395-1.074,2.395-2.396V30.018C34.992,28.696,33.919,27.624,32.597,27.624z"/>
	</g>
	<path fill="#80DEEA" d="M48.06,7.035"/>
	<path fill="#80DEEA" d="M18.369,60.694c-0.359,0-0.723-0.086-1.064-0.262C6.63,54.905,0,44.01,0,32C0,14.356,14.355,0,32,0
		c6.168,0,12.156,1.759,17.318,5.086c1.076,0.694,1.387,2.13,0.691,3.206c-0.693,1.078-2.129,1.385-3.205,0.693
		C42.394,6.141,37.275,4.638,32,4.638C16.913,4.638,4.638,16.913,4.638,32c0,10.27,5.67,19.586,14.799,24.314
		c1.138,0.588,1.582,1.988,0.992,3.125C20.017,60.235,19.208,60.692,18.369,60.694z"/>
	<g>
		<path fill="#80DEEA" d="M26.023,60.956c2.077,0.463,4.231,0.727,6.449,0.727c2.969,0,5.832-0.443,8.535-1.256"/>
		<path fill="#80DEEA" d="M32.472,64c-2.283,0-4.623-0.264-6.953-0.781c-1.25-0.277-2.039-1.516-1.76-2.768
			c0.276-1.25,1.507-2.043,2.767-1.76c4.741,1.053,9.392,0.84,13.815-0.486c1.225-0.369,2.52,0.326,2.887,1.555
			c0.369,1.227-0.328,2.52-1.555,2.887C38.685,63.545,35.587,64,32.472,64z"/>
	</g>
	<path fill="#80DEEA" d="M31.564,48.092"/>
	<path fill="#80DEEA" d="M47.738,59.489c-0.771,0-1.527-0.385-1.967-1.088c-0.68-1.084-0.352-2.516,0.734-3.195
		C54.556,50.161,59.363,41.487,59.363,32c0-6.512-2.332-12.824-6.568-17.775c-0.832-0.973-0.719-2.436,0.254-3.268
		c0.973-0.834,2.438-0.721,3.27,0.254C61.273,17,64,24.383,64,32c0,11.094-5.619,21.238-15.033,27.135
		C48.585,59.375,48.16,59.489,47.738,59.489z"/>
</g>
</svg>
