<?xml version="1.0" encoding="utf-8"?>
<!-- Generator: Adobe Illustrator 16.0.0, SVG Export Plug-In . SVG Version: 6.00 Build 0)  -->
<!DOCTYPE svg PUBLIC "-//W3C//DTD SVG 1.1//EN" "http://www.w3.org/Graphics/SVG/1.1/DTD/svg11.dtd">
<svg version="1.1" id="Layer_1" xmlns="http://www.w3.org/2000/svg" xmlns:xlink="http://www.w3.org/1999/xlink" x="0px" y="0px"
	 width="71.006px" height="64px" viewBox="0 0 71.006 64" enable-background="new 0 0 71.006 64" xml:space="preserve">
<g>
	<g>
		<circle fill="#FFD54F" cx="35.504" cy="48.705" r="3.021"/>
		<path fill="#FFD54F" d="M35.504,19.705c-1.666,0-3.02,1.352-3.02,3.021V39.04c0,1.666,1.354,3.021,3.02,3.021
			c1.668,0,3.02-1.355,3.02-3.021V22.726C38.523,21.057,37.172,19.705,35.504,19.705z"/>
	</g>
	<g>
		<path fill="#FFD54F" d="M13.697,36.133c-0.436,0-0.879-0.111-1.283-0.346c-1.23-0.709-1.652-2.283-0.941-3.514L27.398,4.689
			c1.725-2.984,4.982-4.824,8.418-4.681c3.176,0.089,6.178,1.883,7.793,4.681l2.18,3.775c0.711,1.23,0.291,2.804-0.941,3.514
			c-1.229,0.708-2.803,0.291-3.514-0.941l-2.182-3.776C38.424,6,37.072,5.191,35.627,5.15l-0.123-0.003
			c-1.498,0-2.896,0.811-3.65,2.116L15.928,34.846C15.451,35.672,14.588,36.133,13.697,36.133z"/>
		<path fill="#FFD54F" d="M68.43,57.299c-1.422,0-2.572-1.152-2.572-2.572c0-0.037,0.002-0.088,0.004-0.137
			c-0.01-0.717-0.203-1.422-0.561-2.039l-19.953-34.56c-0.711-1.231-0.289-2.804,0.941-3.515c1.229-0.709,2.805-0.291,3.514,0.941
			l19.955,34.561c0.818,1.414,1.248,3.029,1.248,4.668L71,54.838C70.941,56.208,69.813,57.299,68.43,57.299z"/>
		<path fill="#FFD54F" d="M58.951,64H9.355C4.197,64,0,59.805,0,54.647c0-1.631,0.432-3.244,1.246-4.664l5.963-10.326
			c0.711-1.23,2.287-1.652,3.516-0.941c1.229,0.709,1.65,2.283,0.941,3.514L5.707,52.551c-0.365,0.635-0.561,1.361-0.561,2.096
			c0,2.32,1.889,4.209,4.209,4.209h49.596c1.422,0,2.572,1.15,2.572,2.572C61.523,62.848,60.373,64,58.951,64z"/>
		<circle fill="#FFD54F" cx="65.385" cy="60.135" r="2.381"/>
	</g>
</g>
</svg>
