<?xml version="1.0" encoding="utf-8"?>
<!-- Generator: Adobe Illustrator 16.0.0, SVG Export Plug-In . SVG Version: 6.00 Build 0)  -->
<!DOCTYPE svg PUBLIC "-//W3C//DTD SVG 1.1//EN" "http://www.w3.org/Graphics/SVG/1.1/DTD/svg11.dtd">
<svg version="1.1" id="Layer_1" xmlns="http://www.w3.org/2000/svg" xmlns:xlink="http://www.w3.org/1999/xlink" x="0px" y="0px"
	 width="64px" height="64px" viewBox="0 0 64 64" enable-background="new 0 0 64 64" xml:space="preserve">
<g>
	<g>
		<g>
			<path fill="#81C784" d="M60.972,8.147c-0.943-0.943-2.479-0.943-3.424,0L30.4,35.188l-6.159-6.135
				c-0.947-0.941-2.48-0.941-3.426,0c-0.944,0.941-0.944,2.469,0,3.412l7.873,7.84c0.47,0.471,1.092,0.705,1.712,0.705
				c0.618,0,1.236-0.234,1.712-0.705l28.859-28.75C61.919,10.614,61.919,9.086,60.972,8.147z"/>
		</g>
	</g>
	<path fill="#81C784" d="M31.908,64c-0.495,0-0.991-0.012-1.491-0.035c-6.463-0.291-12.605-2.479-17.765-6.324
		c-1.023-0.762-1.234-2.207-0.468-3.227c0.766-1.021,2.218-1.23,3.241-0.467c4.413,3.289,9.671,5.158,15.199,5.41
		c7.335,0.332,14.365-2.203,19.789-7.135c5.422-4.934,8.594-11.674,8.926-18.98c0.098-2.107-0.049-4.219-0.432-6.273
		c-0.234-1.254,0.596-2.459,1.852-2.691c1.256-0.234,2.467,0.594,2.701,1.848c0.449,2.4,0.617,4.867,0.508,7.326
		c-0.391,8.539-4.098,16.416-10.432,22.178C47.568,61.059,39.939,64,31.908,64z"/>
	<path fill="#81C784" d="M7.902,51.622c-0.719,0-1.429-0.332-1.88-0.959c-4.025-5.58-6.106-12.17-6.02-19.059
		c0.018-1.418,0.132-2.85,0.336-4.25c0.184-1.26,1.361-2.133,2.625-1.949c1.268,0.184,2.141,1.354,1.958,2.613
		c-0.175,1.203-0.271,2.428-0.287,3.643C4.56,37.555,6.341,43.198,9.782,47.969c0.748,1.035,0.51,2.477-0.529,3.221
		C8.843,51.483,8.37,51.622,7.902,51.622z"/>
	<path fill="#81C784" d="M4.69,22.096c-0.32,0-0.641-0.066-0.949-0.205C2.575,21.366,2.056,20,2.581,18.838
		C5.196,13.065,9.44,8.231,14.849,4.859c5.54-3.453,11.932-5.121,18.483-4.826c3.623,0.163,7.152,0.923,10.492,2.253
		c1.188,0.475,1.764,1.819,1.289,3.001c-0.477,1.184-1.826,1.757-3.014,1.283c-2.854-1.141-5.873-1.787-8.979-1.93
		C21.8,4.13,11.468,10.446,6.802,20.737C6.416,21.59,5.573,22.096,4.69,22.096z"/>
</g>
</svg>
