<?xml version="1.0" encoding="utf-8"?>
<!-- Generator: Adobe Illustrator 16.0.0, SVG Export Plug-In . SVG Version: 6.00 Build 0)  -->
<!DOCTYPE svg PUBLIC "-//W3C//DTD SVG 1.1//EN" "http://www.w3.org/Graphics/SVG/1.1/DTD/svg11.dtd">
<svg version="1.1" id="Layer_1" xmlns="http://www.w3.org/2000/svg" xmlns:xlink="http://www.w3.org/1999/xlink" x="0px" y="0px"
	 width="64px" height="64px" viewBox="0 0 64 64" enable-background="new 0 0 64 64" xml:space="preserve">
<g>
	<path fill="#B39DDB" d="M8.811,9.967"/>
	<path fill="#B39DDB" d="M17.428,3.519"/>
	<path fill="#B39DDB" d="M41.21,62.652"/>
	<path fill="#B39DDB" d="M34.251,63.917"/>
	<g>
		<path fill="#B39DDB" d="M40.542,62.749c-0.998,0-1.92-0.648-2.221-1.652c-0.367-1.227,0.328-2.52,1.555-2.887
			c11.473-3.443,19.486-14.22,19.486-26.206c0-15.087-12.273-27.362-27.361-27.362c-4.379,0-8.572,1.011-12.461,3.005
			C18.4,8.23,17.006,7.781,16.42,6.641c-0.584-1.14-0.133-2.537,1.006-3.121c4.549-2.333,9.453-3.516,14.576-3.516
			c17.644,0,31.998,14.355,31.998,32c0,14.019-9.371,26.621-22.791,30.647C40.986,62.717,40.763,62.749,40.542,62.749z"/>
		<path fill="#B39DDB" d="M31.852,63.997c-0.531,0-1.014-0.012-1.479-0.036c-8.537-0.435-16.393-4.167-22.121-10.512
			c-5.729-6.344-8.645-14.538-8.209-23.075c0.42-8.224,3.943-15.881,9.92-21.559c0.928-0.881,2.396-0.845,3.277,0.084
			c0.883,0.928,0.846,2.396-0.084,3.278c-5.109,4.855-8.123,11.401-8.48,18.433c-0.373,7.299,2.119,14.307,7.018,19.73
			c4.898,5.425,11.617,8.617,18.916,8.989c0.572,0.029,1.186,0.038,1.928,0.022c0.014,0,0.029,0,0.043,0
			c1.261,0,2.294,1.01,2.318,2.275c0.021,1.281-0.996,2.338-2.277,2.361C32.352,63.994,32.096,63.997,31.852,63.997z"/>
	</g>
	<path fill="#B39DDB" d="M8.811,9.967"/>
	<path fill="#B39DDB" d="M41.21,62.652"/>
	<path fill="#B39DDB" d="M34.251,63.917"/>
	<path fill="#B39DDB" d="M20.162,23.974c0-1.5,0.482-3.02,1.443-4.558c0.963-1.539,2.369-2.814,4.215-3.824
		c1.848-1.01,4.002-1.516,6.465-1.516c2.287,0,4.308,0.423,6.06,1.268c1.752,0.844,3.105,1.992,4.061,3.444s1.432,3.03,1.432,4.735
		c0,1.342-0.271,2.518-0.816,3.527c-0.545,1.011-1.191,1.883-1.941,2.616c-0.75,0.734-2.096,1.97-4.037,3.706
		c-0.537,0.488-0.967,0.92-1.289,1.29c-0.324,0.371-0.566,0.71-0.723,1.019c-0.158,0.307-0.281,0.615-0.367,0.923
		s-0.219,0.849-0.391,1.622c-0.301,1.642-1.24,2.463-2.816,2.463c-0.822,0-1.514-0.27-2.072-0.806
		c-0.561-0.536-0.842-1.334-0.842-2.392c0-1.326,0.205-2.474,0.615-3.445c0.412-0.971,0.957-1.822,1.635-2.557
		c0.678-0.733,1.594-1.605,2.746-2.616c1.01-0.884,1.74-1.551,2.189-2c0.451-0.45,0.83-0.951,1.137-1.504
		c0.309-0.552,0.463-1.151,0.463-1.8c0-1.262-0.471-2.327-1.41-3.196c-0.938-0.868-2.15-1.302-3.632-1.302
		c-1.738,0-3.016,0.438-3.836,1.314c-0.822,0.875-1.516,2.166-2.084,3.871c-0.537,1.783-1.555,2.675-3.055,2.675
		c-0.883,0-1.629-0.312-2.236-0.935C20.467,25.375,20.162,24.7,20.162,23.974z M31.717,49.923c-0.963,0-1.805-0.312-2.521-0.936
		c-0.719-0.623-1.078-1.495-1.078-2.616c0-0.994,0.348-1.83,1.041-2.51c0.695-0.678,1.547-1.018,2.557-1.018
		c0.996,0,1.832,0.34,2.511,1.018c0.678,0.68,1.018,1.516,1.018,2.51c0,1.105-0.355,1.973-1.066,2.604
		C33.468,49.608,32.646,49.923,31.717,49.923z"/>
</g>
</svg>
